<svg xmlns="http://www.w3.org/2000/svg" viewBox="0 0 100 100" width="100" height="100">
  <!-- Fundo circular -->
  <circle cx="50" cy="50" r="48" fill="#f0f4f8" stroke="#4338ca" stroke-width="2" />
  
  <!-- Ícones de pais -->
  <g transform="translate(25, 30)">
    <!-- Primeiro adulto -->
    <circle cx="15" cy="10" r="10" fill="#4338ca" />
    <path d="M5,23 Q15,35 25,23" stroke="#4338ca" stroke-width="2" fill="none" />
    
    <!-- Segundo adulto -->
    <circle cx="35" cy="10" r="10" fill="#4338ca" />
    <path d="M25,23 Q35,35 45,23" stroke="#4338ca" stroke-width="2" fill="none" />
    
    <!-- Criança -->
    <circle cx="25" cy="20" r="7" fill="#ec4899" />
    <path d="M20,30 Q25,38 30,30" stroke="#ec4899" stroke-width="2" fill="none" />
  </g>
  
  <!-- Decoração em forma de engrenagem (configurações) -->
  <circle cx="70" cy="70" r="12" fill="#e2e8f0" stroke="#4338ca" stroke-width="2" />
  <circle cx="70" cy="70" r="5" fill="#4338ca" />
  
  <path d="M70,58 L70,54" stroke="#4338ca" stroke-width="2" />
  <path d="M70,86 L70,82" stroke="#4338ca" stroke-width="2" />
  <path d="M58,70 L54,70" stroke="#4338ca" stroke-width="2" />
  <path d="M86,70 L82,70" stroke="#4338ca" stroke-width="2" />
  
  <path d="M62,62 L59,59" stroke="#4338ca" stroke-width="2" />
  <path d="M81,81 L78,78" stroke="#4338ca" stroke-width="2" />
  <path d="M62,78 L59,81" stroke="#4338ca" stroke-width="2" />
  <path d="M81,59 L78,62" stroke="#4338ca" stroke-width="2" />
</svg> 